<svg xmlns="http://www.w3.org/2000/svg" fill="#fff" fill-rule="evenodd" clip-rule="evenodd" image-rendering="optimizeQuality" shape-rendering="geometricPrecision" text-rendering="geometricPrecision" viewBox="0 0 512 511.999"><path d="M476.335 35.664zc47.554 47.552 47.552 125.365.002 172.918l-101.729 101.73c-60.027 60.025-162.073 42.413-194.762-32.45 35.888-31.191 53.387-21.102 87.58-6.638 20.128 8.512 43.74 3.955 60.08-12.387l99.375-99.371c21.49-21.493 21.492-56.662 0-78.155-21.489-21.488-56.677-21.472-78.151 0l-71.278 71.28c-23.583-11.337-50.118-14.697-75.453-10.07a121.5 121.5 0 0 1 18.767-24.207l82.651-82.65c47.554-47.551 125.365-47.555 172.918-.001M35.664 476.334zc47.554 47.552 125.365 47.552 172.917 0l85.682-85.682a121.5 121.5 0 0 0 19.325-25.157c-27.876 6.951-57.764 4.015-83.932-8.805l-70.192 70.19c-21.472 21.471-56.658 21.492-78.149 0-21.492-21.491-21.493-56.658 0-78.149l99.375-99.376c20.363-20.363 61.002-26.435 91.717 1.688 29.729-3.133 41.275-8.812 59.742-26.493-39.398-69.476-137.607-80.013-194.757-22.863L35.664 303.417c-47.552 47.553-47.552 125.364 0 172.917"/></svg>