<svg xmlns="http://www.w3.org/2000/svg" width="210mm" height="297mm" viewBox="0 0 210 297"><defs><clipPath id="a"><path d="M210.75 0H468v600H210.75Zm0 0"/></clipPath><clipPath id="b"><path d="M400 119h349.25v362H400Zm0 0"/></clipPath></defs><g clip-path="url(#a)" transform="matrix(.35278 0 0 .35278 -64.412 43.775)"><path fill="#fff" d="M467.754 557.05c0 23.696-19.145 42.84-42.844 42.84h-85.683c-70.954 0-128.524-57.566-128.524-128.523V128.633c0-70.957 57.57-128.524 128.524-128.524h85.683c23.7 0 42.844 19.145 42.844 42.844 0 23.695-19.145 42.84-42.844 42.84h-85.683c-23.696 0-42.84 19.144-42.84 42.84v342.734c0 23.695 19.144 42.84 42.84 42.84h85.683c23.7 0 42.844 19.145 42.844 42.844m0 0"/></g><g clip-path="url(#b)" transform="matrix(.35278 0 0 .35278 -64.412 43.775)"><path fill="#fff" d="m597.746 130.504 138.668 138.668c8.129 8.129 12.758 19.308 12.758 30.828s-4.629 22.7-12.758 30.828L597.746 469.492c-7.226 7.227-16.941 11.18-27.101 11.18-21.118 0-38.278-17.164-38.278-38.281v-70.125h-95.984c-19.985 0-36.133-16.149-36.133-36.133v-72.266c0-19.992 16.148-36.137 36.133-36.137h95.984v-70.125c0-21.113 17.16-38.277 38.278-38.277 10.16 0 19.875 4.067 27.101 11.176m0 0"/></g></svg>