<svg xmlns="http://www.w3.org/2000/svg" width="210mm" height="297mm" viewBox="0 0 210 297"><g fill="#27292b"><path d="M194.594 161.94h-.003l-6.368-3.682c.174-2.1.26-4.127.26-6.114s-.086-4.014-.26-6.114l6.37-3.681c11.407-6.588 15.327-21.237 8.743-32.646L191.24 88.752c-3.19-5.528-8.344-9.481-14.51-11.135-6.157-1.654-12.609-.8-18.139 2.387l-6.351 3.667a81.5 81.5 0 0 0-10.61-6.087v-7.375c0-13.176-10.72-23.898-23.898-23.898H93.535c-13.175 0-23.897 10.722-23.897 23.898v7.375a81.5 81.5 0 0 0-10.609 6.087l-6.351-3.667a23.74 23.74 0 0 0-18.14-2.387c-6.164 1.654-11.32 5.607-14.507 11.135L7.929 109.703c-6.582 11.409-2.661 26.058 8.748 32.646l6.368 3.68a75 75 0 0 0-.26 6.115c0 1.987.087 4.014.26 6.114l-6.371 3.681c-11.406 6.589-15.327 21.237-8.74 32.646l12.094 20.952c6.589 11.401 21.22 15.341 32.65 8.747l6.351-3.667a81.5 81.5 0 0 0 10.609 6.087v7.375c0 13.176 10.722 23.898 23.897 23.898h24.199c13.175 0 23.896-10.722 23.896-23.898v-7.375a81.5 81.5 0 0 0 10.61-6.087l6.358 3.674c11.421 6.575 26.062 2.654 32.639-8.754l12.102-20.952c6.581-11.409 2.66-26.057-8.745-32.646m-8.995 22.403-12.101 20.95c-.942 1.628-3.049 2.175-4.658 1.255l-12.18-7.035a10.23 10.23 0 0 0-11.605.94c-5.1 4.168-10.923 7.515-17.303 9.935a10.24 10.24 0 0 0-6.605 9.576v14.115a3.42 3.42 0 0 1-3.413 3.414H93.535a3.42 3.42 0 0 1-3.414-3.414v-14.115c0-4.255-2.627-8.061-6.604-9.576-6.382-2.42-12.202-5.767-17.304-9.935a10.243 10.243 0 0 0-11.606-.94l-12.172 7.028a3.42 3.42 0 0 1-4.667-1.247l-12.095-20.95a3.42 3.42 0 0 1 1.247-4.668l12.238-7.068a10.245 10.245 0 0 0 4.991-10.502c-.594-3.667-.88-6.922-.88-9.962s.286-6.295.88-9.962c.677-4.2-1.31-8.374-4.99-10.502l-12.237-7.068a3.425 3.425 0 0 1-1.254-4.667l12.104-20.95a3.38 3.38 0 0 1 2.074-1.595 3.35 3.35 0 0 1 2.584.34l12.177 7.035a10.24 10.24 0 0 0 11.606-.94c5.102-4.168 10.922-7.515 17.304-9.935a10.24 10.24 0 0 0 6.604-9.576V70.209a3.42 3.42 0 0 1 3.414-3.414h24.199a3.417 3.417 0 0 1 3.413 3.414v14.115c0 4.255 2.627 8.061 6.605 9.576 6.38 2.42 12.203 5.767 17.303 9.936a10.24 10.24 0 0 0 11.606.94l12.179-7.035a3.38 3.38 0 0 1 2.584-.34 3.4 3.4 0 0 1 2.076 1.594l12.097 20.95a3.424 3.424 0 0 1-1.247 4.667l-12.24 7.068a10.245 10.245 0 0 0-4.991 10.502c.593 3.667.88 6.922.88 9.962s-.287 6.295-.88 9.962a10.245 10.245 0 0 0 4.99 10.502l12.236 7.068a3.425 3.425 0 0 1 1.254 4.667m0 0" style="stroke-width:.352778"/><path d="M105.635 100.388c-28.542 0-51.76 23.217-51.76 51.756s23.218 51.756 51.76 51.756 51.759-23.217 51.759-51.756-23.217-51.756-51.76-51.756m0 83.03c-17.248 0-31.276-14.03-31.276-31.274 0-17.243 14.028-31.273 31.276-31.273 17.246 0 31.276 14.03 31.276 31.273s-14.03 31.273-31.276 31.273m0 0" style="stroke-width:.352778"/></g></svg>