<?xml version="1.0" encoding="UTF-8" standalone="no"?>
<svg
   width="1280"
   zoomAndPan="magnify"
   viewBox="0 0 960 599.999999"
   height="800"
   preserveAspectRatio="xMidYMid meet"
   version="1.0"
   id="svg20"
   sodipodi:docname="new_settings2.svg"
   inkscape:version="1.3.2 (091e20e, 2023-11-25, custom)"
   xmlns:inkscape="http://www.inkscape.org/namespaces/inkscape"
   xmlns:sodipodi="http://sodipodi.sourceforge.net/DTD/sodipodi-0.dtd"
   xmlns="http://www.w3.org/2000/svg"
   xmlns:svg="http://www.w3.org/2000/svg">
  <sodipodi:namedview
     id="namedview20"
     pagecolor="#ffffff"
     bordercolor="#cccccc"
     borderopacity="1"
     inkscape:showpageshadow="0"
     inkscape:pageopacity="1"
     inkscape:pagecheckerboard="0"
     inkscape:deskcolor="#d1d1d1"
     inkscape:zoom="0.738125"
     inkscape:cx="156.47756"
     inkscape:cy="607.62066"
     inkscape:window-width="2560"
     inkscape:window-height="1377"
     inkscape:window-x="1912"
     inkscape:window-y="-8"
     inkscape:window-maximized="1"
     inkscape:current-layer="svg20" />
  <defs
     id="defs18">
    <linearGradient
       x1="0"
       gradientTransform="matrix(0.75, 0, 0, 0.75, 0.00000048, 0.00002)"
       y1="400"
       x2="1279.999947"
       gradientUnits="userSpaceOnUse"
       y2="400"
       id="f89f2bb34a">
      <stop
         stop-opacity="1"
         stop-color="rgb(94.099426%, 94.898987%, 94.898987%)"
         offset="0"
         id="stop1" />
      <stop
         stop-opacity="1"
         stop-color="rgb(94.099426%, 94.898987%, 94.898987%)"
         offset="0.5"
         id="stop2" />
      <stop
         stop-opacity="1"
         stop-color="rgb(94.198608%, 94.973755%, 94.973755%)"
         offset="0.53125"
         id="stop3" />
      <stop
         stop-opacity="1"
         stop-color="rgb(94.398499%, 95.123291%, 95.123291%)"
         offset="0.5625"
         id="stop4" />
      <stop
         stop-opacity="1"
         stop-color="rgb(94.598389%, 95.274353%, 95.274353%)"
         offset="0.59375"
         id="stop5" />
      <stop
         stop-opacity="1"
         stop-color="rgb(94.798279%, 95.423889%, 95.423889%)"
         offset="0.625"
         id="stop6" />
      <stop
         stop-opacity="1"
         stop-color="rgb(94.998169%, 95.573425%, 95.573425%)"
         offset="0.65625"
         id="stop7" />
      <stop
         stop-opacity="1"
         stop-color="rgb(95.198059%, 95.724487%, 95.724487%)"
         offset="0.6875"
         id="stop8" />
      <stop
         stop-opacity="1"
         stop-color="rgb(95.397949%, 95.874023%, 95.874023%)"
         offset="0.71875"
         id="stop9" />
      <stop
         stop-opacity="1"
         stop-color="rgb(95.597839%, 96.02356%, 96.02356%)"
         offset="0.75"
         id="stop10" />
      <stop
         stop-opacity="1"
         stop-color="rgb(95.799255%, 96.174622%, 96.174622%)"
         offset="0.78125"
         id="stop11" />
      <stop
         stop-opacity="1"
         stop-color="rgb(95.999146%, 96.324158%, 96.324158%)"
         offset="0.8125"
         id="stop12" />
      <stop
         stop-opacity="1"
         stop-color="rgb(96.199036%, 96.473694%, 96.473694%)"
         offset="0.84375"
         id="stop13" />
      <stop
         stop-opacity="1"
         stop-color="rgb(96.398926%, 96.624756%, 96.624756%)"
         offset="0.875"
         id="stop14" />
      <stop
         stop-opacity="1"
         stop-color="rgb(96.598816%, 96.774292%, 96.774292%)"
         offset="0.90625"
         id="stop15" />
      <stop
         stop-opacity="1"
         stop-color="rgb(96.798706%, 96.923828%, 96.923828%)"
         offset="0.9375"
         id="stop16" />
      <stop
         stop-opacity="1"
         stop-color="rgb(96.998596%, 97.073364%, 97.073364%)"
         offset="0.96875"
         id="stop17" />
      <stop
         stop-opacity="1"
         stop-color="rgb(97.198486%, 97.224426%, 97.224426%)"
         offset="1"
         id="stop18" />
    </linearGradient>
  </defs>
  <path
     fill="#27292b"
     d="M 733.136719 327.765625 C 733.136719 327.765625 733.136719 327.765625 733.128906 327.765625 L 715.078125 317.332031 C 715.570312 311.378906 715.816406 305.632812 715.816406 300 C 715.816406 294.367188 715.570312 288.621094 715.078125 282.667969 L 733.136719 272.234375 C 765.46875 253.558594 776.582031 212.035156 757.917969 179.695312 L 723.628906 120.304688 C 714.585938 104.636719 699.976562 93.429688 682.5 88.742188 C 665.046875 84.054688 646.757812 86.472656 631.082031 95.507812 L 613.078125 105.902344 C 603.550781 99.4375 593.515625 93.675781 583.003906 88.648438 L 583.003906 67.742188 C 583.003906 30.394531 552.613281 0 515.261719 0 L 446.671875 0 C 409.324219 0 378.929688 30.394531 378.929688 67.742188 L 378.929688 88.648438 C 368.421875 93.675781 358.382812 99.4375 348.859375 105.902344 L 330.855469 95.507812 C 315.175781 86.453125 296.90625 84.054688 279.433594 88.742188 C 261.960938 93.429688 247.347656 104.636719 238.3125 120.304688 L 204.007812 179.695312 C 185.351562 212.035156 196.464844 253.558594 228.804688 272.234375 L 246.855469 282.667969 C 246.367188 288.621094 246.121094 294.367188 246.121094 300 C 246.121094 305.632812 246.367188 311.378906 246.855469 317.332031 L 228.796875 327.765625 C 196.464844 346.441406 185.351562 387.964844 204.019531 420.304688 L 238.304688 479.695312 C 256.980469 512.015625 298.457031 523.183594 330.855469 504.492188 L 348.859375 494.097656 C 358.382812 500.5625 368.421875 506.324219 378.929688 511.351562 L 378.929688 532.257812 C 378.929688 569.605469 409.324219 600 446.671875 600 L 515.265625 600 C 552.613281 600 583.003906 569.605469 583.003906 532.257812 L 583.003906 511.351562 C 593.515625 506.324219 603.550781 500.5625 613.078125 494.097656 L 631.101562 504.511719 C 663.476562 523.148438 704.976562 512.035156 723.621094 479.695312 L 757.925781 420.304688 C 776.582031 387.964844 765.46875 346.441406 733.136719 327.765625 Z M 707.640625 391.273438 L 673.335938 450.660156 C 670.667969 455.273438 664.695312 456.824219 660.132812 454.214844 L 625.609375 434.273438 C 615.136719 428.246094 602.058594 429.265625 592.710938 436.9375 C 578.253906 448.753906 561.75 458.242188 543.664062 465.101562 C 532.386719 469.394531 524.941406 480.183594 524.941406 492.246094 L 524.941406 532.257812 C 524.941406 537.589844 520.601562 541.933594 515.265625 541.933594 L 446.671875 541.933594 C 441.332031 541.933594 436.992188 537.589844 436.992188 532.257812 L 436.992188 492.246094 C 436.992188 480.183594 429.546875 469.394531 418.273438 465.101562 C 400.183594 458.242188 383.683594 448.753906 369.222656 436.9375 C 363.921875 432.59375 357.402344 430.378906 350.851562 430.378906 C 345.863281 430.378906 340.84375 431.664062 336.324219 434.273438 L 301.820312 454.195312 C 297.191406 456.878906 291.265625 455.273438 288.589844 450.660156 L 254.304688 391.273438 C 251.628906 386.664062 253.226562 380.707031 257.839844 378.042969 L 292.53125 358.007812 C 302.964844 351.976562 308.597656 340.144531 306.679688 328.238281 C 304.996094 317.84375 304.183594 308.617188 304.183594 300 C 304.183594 291.382812 304.996094 282.15625 306.679688 271.761719 C 308.597656 259.855469 302.964844 248.023438 292.53125 241.992188 L 257.847656 221.957031 C 253.226562 219.292969 251.628906 213.339844 254.292969 208.726562 L 288.601562 149.339844 C 290.339844 146.3125 293.03125 145.199219 294.480469 144.820312 C 295.914062 144.425781 298.777344 144.027344 301.804688 145.785156 L 336.324219 165.726562 C 346.769531 171.753906 359.886719 170.714844 369.222656 163.0625 C 383.683594 151.246094 400.183594 141.757812 418.273438 134.898438 C 429.546875 130.605469 436.992188 119.816406 436.992188 107.753906 L 436.992188 67.742188 C 436.992188 62.410156 441.332031 58.066406 446.671875 58.066406 L 515.265625 58.066406 C 520.605469 58.066406 524.941406 62.410156 524.941406 67.742188 L 524.941406 107.753906 C 524.941406 119.816406 532.386719 130.605469 543.664062 134.898438 C 561.75 141.757812 578.253906 151.246094 592.710938 163.0625 C 602.058594 170.714844 615.136719 171.753906 625.609375 165.726562 L 660.132812 145.785156 C 663.148438 144.046875 666.011719 144.425781 667.457031 144.820312 C 668.902344 145.199219 671.597656 146.316406 673.34375 149.339844 L 707.632812 208.726562 C 710.304688 213.339844 708.707031 219.292969 704.097656 221.957031 L 669.402344 241.992188 C 658.96875 248.023438 653.335938 259.855469 655.253906 271.761719 C 656.9375 282.15625 657.75 291.382812 657.75 300 C 657.75 308.621094 656.9375 317.84375 655.253906 328.238281 C 653.335938 340.144531 658.96875 351.976562 669.402344 358.007812 L 704.085938 378.042969 C 708.707031 380.707031 710.304688 386.660156 707.640625 391.273438 Z M 707.640625 391.273438 "
     fill-opacity="1"
     fill-rule="nonzero"
     id="path19" />
  <path
     fill="#27292b"
     d="M 480.96875 153.289062 C 400.0625 153.289062 334.246094 219.101562 334.246094 300 C 334.246094 380.898438 400.0625 446.710938 480.96875 446.710938 C 561.875 446.710938 627.6875 380.898438 627.6875 300 C 627.6875 219.101562 561.875 153.289062 480.96875 153.289062 Z M 480.96875 388.648438 C 432.078125 388.648438 392.3125 348.878906 392.3125 300 C 392.3125 251.121094 432.078125 211.351562 480.96875 211.351562 C 529.855469 211.351562 569.625 251.121094 569.625 300 C 569.625 348.878906 529.855469 388.648438 480.96875 388.648438 Z M 480.96875 388.648438 "
     fill-opacity="1"
     fill-rule="nonzero"
     id="path20" />
</svg>
