<?xml version="1.0" encoding="UTF-8" standalone="no"?>
<!-- Created with Inkscape (http://www.inkscape.org/) -->

<svg
   width="210mm"
   height="297mm"
   viewBox="0 0 210 297"
   version="1.1"
   id="svg1"
   xmlns="http://www.w3.org/2000/svg"
   xmlns:svg="http://www.w3.org/2000/svg">
  <defs
     id="defs1" />
  <g
     id="layer1">
    <path
       fill="#27292b"
       d="m 136.81292,136.86177 c -0.73725,14.63752 -7.01973,28.89884 -18.77577,39.50698 C 106.31556,186.97688 91.50027,191.78624 76.853103,191.0545 62.207312,190.30209 47.947375,184.02926 37.326834,172.30215 26.733853,160.55714 21.94517,145.74598 22.661749,131.0809 23.408647,116.45302 29.686991,102.19309 41.418227,91.593218 53.154978,80.994724 67.974403,76.175725 82.616056,76.917109 c 14.655437,0.733117 28.901594,7.005947 39.511114,18.742698 10.60951,11.727103 15.39958,26.556173 14.68575,41.201963 z m 57.54549,104.06806 -51.89829,-57.42974 c 10.53648,-13.31598 16.34629,-29.28469 17.17173,-45.47112 1.05834,-20.4184 -5.75882,-41.338392 -20.53552,-57.699838 C 124.30447,63.967685 104.16582,55.102765 83.766719,54.080261 63.35246,53.030196 42.429708,59.83357 26.102712,74.624054 9.7164598,89.42556 0.86532196,109.53527 -0.15580388,129.93437 -1.2251615,150.34312 5.5878592,171.26311 20.370073,187.62456 c 14.794618,16.36007 34.929134,25.23464 55.337878,26.25714 16.182305,0.8282 32.674669,-3.36379 46.982839,-12.50707 l 51.879,57.42009 c 4.94578,5.47357 13.37661,5.88698 18.83364,0.95222 5.46944,-4.93337 5.88836,-13.36421 0.95498,-18.81711"
       fill-opacity="1"
       fill-rule="nonzero"
       id="path18"
       style="stroke-width:0.352778" />
  </g>
</svg>
