<?xml version="1.0" encoding="UTF-8" standalone="no"?>
<!-- Created with Inkscape (http://www.inkscape.org/) -->

<svg
   width="210mm"
   height="297mm"
   viewBox="0 0 210 297"
   version="1.1"
   id="svg1"
   xmlns="http://www.w3.org/2000/svg"
   xmlns:svg="http://www.w3.org/2000/svg">
  <defs
     id="defs1">
    <clipPath
       id="75cdb639d4">
      <path
         d="M 210.75,0 H 468 V 600 H 210.75 Z m 0,0"
         clip-rule="nonzero"
         id="path18" />
    </clipPath>
    <clipPath
       id="91231f6761">
      <path
         d="M 400,119 H 749.25 V 481 H 400 Z m 0,0"
         clip-rule="nonzero"
         id="path19" />
    </clipPath>
  </defs>
  <g
     id="layer1">
    <g
       id="g22"
       transform="matrix(0.35277777,0,0,0.35277777,-64.411999,43.774546)">
      <g
         clip-path="url(#75cdb639d4)"
         id="g20">
        <path
           fill="#ffffff"
           d="m 467.75391,557.05078 c 0,23.69531 -19.14454,42.83984 -42.84375,42.83984 h -85.6836 c -70.95312,0 -128.52344,-57.5664 -128.52344,-128.52343 V 128.63281 c 0,-70.957029 57.57032,-128.523435 128.52344,-128.523435 h 85.6836 c 23.69921,0 42.84375,19.144531 42.84375,42.84375 0,23.695313 -19.14454,42.839844 -42.84375,42.839844 h -85.6836 c -23.69531,0 -42.83984,19.144531 -42.83984,42.839841 v 342.73438 c 0,23.69531 19.14453,42.83984 42.83984,42.83984 h 85.6836 c 23.69921,0 42.84375,19.14453 42.84375,42.84375 z m 0,0"
           fill-opacity="1"
           fill-rule="nonzero"
           id="path20" />
      </g>
      <g
         clip-path="url(#91231f6761)"
         id="g21">
        <path
           fill="#ffffff"
           d="m 597.74609,130.50391 138.66797,138.66796 c 8.12891,8.12891 12.75781,19.3086 12.75781,30.82813 0,11.51953 -4.6289,22.69922 -12.75781,30.82812 L 597.74609,469.49219 c -7.22656,7.22656 -16.9414,11.17968 -27.10156,11.17968 -21.11719,0 -38.27734,-17.16406 -38.27734,-38.28125 v -70.125 h -95.98438 c -19.98437,0 -36.13281,-16.14843 -36.13281,-36.13281 v -72.26562 c 0,-19.99219 16.14844,-36.13672 36.13281,-36.13672 h 95.98438 v -70.125 c 0,-21.11328 17.16015,-38.27734 38.27734,-38.27734 10.16016,0 19.875,4.0664 27.10156,11.17578 z m 0,0"
           fill-opacity="1"
           fill-rule="nonzero"
           id="path21" />
      </g>
    </g>
  </g>
</svg>
