<?xml version="1.0" encoding="UTF-8" standalone="no"?>
<!-- Created with Inkscape (http://www.inkscape.org/) -->

<svg
   width="210mm"
   height="297mm"
   viewBox="0 0 210 297"
   version="1.1"
   id="svg1"
   inkscape:version="1.3.2 (091e20e, 2023-11-25, custom)"
   sodipodi:docname="new_settings.svg"
   xmlns:inkscape="http://www.inkscape.org/namespaces/inkscape"
   xmlns:sodipodi="http://sodipodi.sourceforge.net/DTD/sodipodi-0.dtd"
   xmlns="http://www.w3.org/2000/svg"
   xmlns:svg="http://www.w3.org/2000/svg">
  <sodipodi:namedview
     id="namedview1"
     pagecolor="#ffffff"
     bordercolor="#cccccc"
     borderopacity="1"
     inkscape:showpageshadow="0"
     inkscape:pageopacity="1"
     inkscape:pagecheckerboard="0"
     inkscape:deskcolor="#d1d1d1"
     inkscape:document-units="mm"
     inkscape:zoom="1.0520974"
     inkscape:cx="396.82639"
     inkscape:cy="561.25984"
     inkscape:window-width="2560"
     inkscape:window-height="1377"
     inkscape:window-x="1912"
     inkscape:window-y="-8"
     inkscape:window-maximized="1"
     inkscape:current-layer="layer1" />
  <defs
     id="defs1" />
  <g
     inkscape:label="Layer 1"
     inkscape:groupmode="layer"
     id="layer1">
    <path
       fill="#27292b"
       d="m 194.5939,161.93917 c 0,0 0,0 -0.003,0 l -6.36791,-3.68073 c 0.17363,-2.10013 0.26045,-4.12723 0.26045,-6.11436 0,-1.98713 -0.0868,-4.01423 -0.26045,-6.11435 l 6.37067,-3.68075 c 11.40602,-6.5884 15.32654,-21.23694 8.74227,-32.64572 L 191.23958,88.751574 c -3.19016,-5.52731 -8.34402,-9.4809 -14.50936,-11.13455 -6.15708,-1.65364 -12.60905,-0.80064 -18.13912,2.38676 l -6.35138,3.66696 c -3.36103,-2.28065 -6.90122,-4.31326 -10.60951,-6.08679 v -7.37526 c 0,-13.17543 -10.72114,-23.89794 -23.89794,-23.89794 H 93.535469 c -13.17542,0 -23.897935,10.72251 -23.897935,23.89794 v 7.37526 c -3.706925,1.77353 -7.248482,3.80614 -10.60814,6.08679 l -6.351376,-3.66696 c -5.531446,-3.19429 -11.97653,-4.0404 -18.140496,-2.38676 -6.163963,1.65365 -11.319203,5.60724 -14.506607,11.13455 L 7.9289829,109.70326 c -6.58151,11.40878 -2.660992,26.05732 8.7477881,32.64572 l 6.367914,3.68075 c -0.172254,2.10012 -0.259073,4.12722 -0.259073,6.11435 0,1.98713 0.08682,4.01423 0.259073,6.11436 l -6.370673,3.68073 C 5.2679909,168.52758 1.3474729,183.17612 7.9331179,194.5849 L 20.02816,215.53659 c 6.5884,11.40189 21.220408,15.3417 32.649858,8.74779 l 6.351376,-3.66696 c 3.359658,2.28065 6.901215,4.31326 10.60814,6.08679 v 7.37526 c 0,13.17543 10.722515,23.89794 23.897935,23.89794 h 24.198351 c 13.17542,0 23.89656,-10.72251 23.89656,-23.89794 v -7.37526 c 3.70829,-1.77353 7.24848,-3.80614 10.60951,-6.08679 l 6.35827,3.67385 c 11.42118,6.57462 26.06146,2.6541 32.63883,-8.75468 l 12.10193,-20.95169 c 6.58151,-11.40878 2.661,-26.05732 -8.74502,-32.64573 z m -8.99446,22.40415 -12.10193,20.95032 c -0.9412,1.62746 -3.04822,2.17454 -4.65777,1.25401 l -12.1791,-7.03488 c -3.69452,-2.12632 -8.3082,-1.76665 -11.60584,0.93982 -5.10012,4.16856 -10.92233,7.51582 -17.30265,9.93565 -3.97839,1.51447 -6.60493,5.32061 -6.60493,9.57599 v 14.11524 c 0,1.88102 -1.531,3.4134 -3.4134,3.4134 H 93.535469 c -1.883777,0 -3.414776,-1.53238 -3.414776,-3.4134 v -14.11524 c 0,-4.25538 -2.626543,-8.06152 -6.603559,-9.57599 -6.381697,-2.41983 -12.20253,-5.76709 -17.304024,-9.93565 -1.870001,-1.53238 -4.169947,-2.31373 -6.480916,-2.31373 -1.759754,0 -3.530533,0.45337 -5.124923,1.37391 l -12.172212,7.02799 c -1.632973,0.94671 -3.72346,0.38034 -4.667416,-1.24712 L 25.672604,184.34332 c -0.943955,-1.62609 -0.38034,-3.72759 1.247123,-4.66741 l 12.238358,-7.06796 c 3.680739,-2.12769 5.667872,-6.30177 4.991255,-10.50203 -0.593937,-3.66696 -0.880568,-6.92189 -0.880568,-9.96184 0,-3.03995 0.286631,-6.29488 0.880568,-9.96184 0.676617,-4.20026 -1.310516,-8.37433 -4.991255,-10.50202 l -12.2356,-7.06796 c -1.630221,-0.93983 -2.193836,-3.03996 -1.254015,-4.66742 L 37.771778,98.994534 c 0.613226,-1.06798 1.562696,-1.46072 2.073949,-1.59439 0.505738,-0.13919 1.51584,-0.27975 2.583822,0.34037 l 12.177722,7.034886 c 3.684873,2.12631 8.312327,1.75975 11.605839,-0.93982 5.101494,-4.168566 10.922327,-7.515826 17.304024,-9.935656 3.977016,-1.51446 6.603559,-5.3206 6.603559,-9.57599 v -14.11524 c 0,-1.88102 1.530999,-3.4134 3.414776,-3.4134 h 24.198351 c 1.88378,0 3.4134,1.53238 3.4134,3.4134 v 14.11524 c 0,4.25539 2.62654,8.06153 6.60493,9.57599 6.38032,2.41983 12.20253,5.76709 17.30265,9.935656 3.29764,2.69957 7.91132,3.06613 11.60584,0.93982 l 12.1791,-7.034886 c 1.06385,-0.61323 2.07395,-0.47956 2.58382,-0.34037 0.50987,0.13367 1.46072,0.52779 2.0767,1.59439 l 12.09642,20.950306 c 0.94258,1.62746 0.37896,3.72759 -1.24712,4.66742 l -12.23974,7.06796 c -3.68074,2.12769 -5.66787,6.30176 -4.99125,10.50202 0.59393,3.66696 0.88057,6.92189 0.88057,9.96184 0,3.04133 -0.28664,6.29488 -0.88057,9.96184 -0.67662,4.20026 1.31051,8.37434 4.99125,10.50203 l 12.23561,7.06796 c 1.63021,0.93982 2.19383,3.03995 1.25401,4.66741 z m 0,0"
       fill-opacity="1"
       fill-rule="nonzero"
       id="path19"
       style="stroke-width:0.352778" />
    <path
       fill="#27292b"
       d="m 105.63465,100.38772 c -28.54193,0 -51.760497,23.21719 -51.760497,51.75636 0,28.53917 23.218567,51.75636 51.760497,51.75636 28.54192,0 51.7591,-23.21719 51.7591,-51.75636 0,-28.53917 -23.21718,-51.75636 -51.7591,-51.75636 z m 0,83.02956 c -17.247531,0 -31.275958,-14.02981 -31.275958,-31.2732 0,-17.24339 14.028427,-31.2732 31.275958,-31.2732 17.24614,0 31.27595,14.02981 31.27595,31.2732 0,17.24339 -14.02981,31.2732 -31.27595,31.2732 z m 0,0"
       fill-opacity="1"
       fill-rule="nonzero"
       id="path20"
       style="stroke-width:0.352778" />
  </g>
</svg>
